<svg xmlns="http://www.w3.org/2000/svg" width="1536" height="730" style="cursor: move;"><g transform="translate(48.46946726660798,50.64296107792114) scale(0.8876113372695)"><path class="link" marker-end="" d="M524,315, 727,235" style="stroke-width: 0.62; stroke-opacity: 1; stroke: rgb(128, 0, 128); fill: none;"></path><path class="link" marker-end="" d="M524,315, 727,275" style="stroke-width: 0.62; stroke-opacity: 1; stroke: rgb(128, 0, 128); fill: none;"></path><path class="link" marker-end="" d="M524,315, 727,315" style="stroke-width: 0.62; stroke-opacity: 1; stroke: rgb(128, 0, 128); fill: none;"></path><path class="link" marker-end="" d="M524,315, 727,355" style="stroke-width: 0.62; stroke-opacity: 1; stroke: rgb(128, 0, 128); fill: none;"></path><path class="link" marker-end="" d="M524,315, 727,395" style="stroke-width: 0.62; stroke-opacity: 1; stroke: rgb(128, 0, 128); fill: none;"></path><path class="link" marker-end="" d="M524,315, 727,435" style="stroke-width: 0.62; stroke-opacity: 1; stroke: rgb(128, 0, 128); fill: none;"></path><path class="link" marker-end="" d="M524,315, 727,475" style="stroke-width: 0.62; stroke-opacity: 1; stroke: rgb(128, 0, 128); fill: none;"></path><path class="link" marker-end="" d="M524,315, 727,515" style="stroke-width: 0.62; stroke-opacity: 1; stroke: rgb(128, 0, 128); fill: none;"></path><path class="link" marker-end="" d="M524,355, 727,235" style="stroke-width: 0.62; stroke-opacity: 1; stroke: rgb(128, 0, 128); fill: none;"></path><path class="link" marker-end="" d="M524,355, 727,275" style="stroke-width: 0.62; stroke-opacity: 1; stroke: rgb(128, 0, 128); fill: none;"></path><path class="link" marker-end="" d="M524,355, 727,315" style="stroke-width: 0.62; stroke-opacity: 1; stroke: rgb(128, 0, 128); fill: none;"></path><path class="link" marker-end="" d="M524,355, 727,355" style="stroke-width: 0.62; stroke-opacity: 1; stroke: rgb(128, 0, 128); fill: none;"></path><path class="link" marker-end="" d="M524,355, 727,395" style="stroke-width: 0.62; stroke-opacity: 1; stroke: rgb(128, 0, 128); fill: none;"></path><path class="link" marker-end="" d="M524,355, 727,435" style="stroke-width: 0.62; stroke-opacity: 1; stroke: rgb(128, 0, 128); fill: none;"></path><path class="link" marker-end="" d="M524,355, 727,475" style="stroke-width: 0.62; stroke-opacity: 1; stroke: rgb(128, 0, 128); fill: none;"></path><path class="link" marker-end="" d="M524,355, 727,515" style="stroke-width: 0.62; stroke-opacity: 1; stroke: rgb(128, 0, 128); fill: none;"></path><path class="link" marker-end="" d="M524,395, 727,235" style="stroke-width: 0.62; stroke-opacity: 1; stroke: rgb(128, 0, 128); fill: none;"></path><path class="link" marker-end="" d="M524,395, 727,275" style="stroke-width: 0.62; stroke-opacity: 1; stroke: rgb(128, 0, 128); fill: none;"></path><path class="link" marker-end="" d="M524,395, 727,315" style="stroke-width: 0.62; stroke-opacity: 1; stroke: rgb(128, 0, 128); fill: none;"></path><path class="link" marker-end="" d="M524,395, 727,355" style="stroke-width: 0.62; stroke-opacity: 1; stroke: rgb(128, 0, 128); fill: none;"></path><path class="link" marker-end="" d="M524,395, 727,395" style="stroke-width: 0.62; stroke-opacity: 1; stroke: rgb(128, 0, 128); fill: none;"></path><path class="link" marker-end="" d="M524,395, 727,435" style="stroke-width: 0.62; stroke-opacity: 1; stroke: rgb(128, 0, 128); fill: none;"></path><path class="link" marker-end="" d="M524,395, 727,475" style="stroke-width: 0.62; stroke-opacity: 1; stroke: rgb(128, 0, 128); fill: none;"></path><path class="link" marker-end="" d="M524,395, 727,515" style="stroke-width: 0.62; stroke-opacity: 1; stroke: rgb(128, 0, 128); fill: none;"></path><path class="link" marker-end="" d="M524,315, 727,195" style="stroke-width: 0.62; stroke-opacity: 1; stroke: rgb(128, 0, 128); fill: none;"></path><path class="link" marker-end="" d="M524,355, 727,195" style="stroke-width: 0.62; stroke-opacity: 1; stroke: rgb(128, 0, 128); fill: none;"></path><path class="link" marker-end="" d="M524,395, 727,195" style="stroke-width: 0.62; stroke-opacity: 1; stroke: rgb(128, 0, 128); fill: none;"></path><path class="link" marker-end="" d="M727,195, 930,355" style="stroke-width: 0.62; stroke-opacity: 1; stroke: rgb(128, 0, 128); fill: none;"></path><path class="link" marker-end="" d="M727,235, 930,355" style="stroke-width: 0.62; stroke-opacity: 1; stroke: rgb(128, 0, 128); fill: none;"></path><path class="link" marker-end="" d="M727,275, 930,355" style="stroke-width: 0.62; stroke-opacity: 1; stroke: rgb(128, 0, 128); fill: none;"></path><path class="link" marker-end="" d="M727,315, 930,355" style="stroke-width: 0.62; stroke-opacity: 1; stroke: rgb(128, 0, 128); fill: none;"></path><path class="link" marker-end="" d="M727,355, 930,355" style="stroke-width: 0.62; stroke-opacity: 1; stroke: rgb(128, 0, 128); fill: none;"></path><path class="link" marker-end="" d="M727,395, 930,355" style="stroke-width: 0.62; stroke-opacity: 1; stroke: rgb(128, 0, 128); fill: none;"></path><path class="link" marker-end="" d="M727,435, 930,355" style="stroke-width: 0.62; stroke-opacity: 1; stroke: rgb(128, 0, 128); fill: none;"></path><path class="link" marker-end="" d="M727,475, 930,355" style="stroke-width: 0.62; stroke-opacity: 1; stroke: rgb(128, 0, 128); fill: none;"></path><path class="link" marker-end="" d="M727,515, 930,355" style="stroke-width: 0.62; stroke-opacity: 1; stroke: rgb(128, 0, 128); fill: none;"></path><circle r="10" class="node" id="0_0" cx="524" cy="315" style="fill: rgb(1, 1, 1); stroke: rgb(128, 0, 128);"></circle><circle r="10" class="node" id="0_1" cx="524" cy="355" style="fill: rgb(1, 1, 1); stroke: rgb(128, 0, 128);"></circle><circle r="10" class="node" id="0_2" cx="524" cy="395" style="fill: rgb(1, 1, 1); stroke: rgb(128, 0, 128);"></circle><circle r="10" class="node" id="1_0" cx="727" cy="195" style="fill: rgb(1, 1, 1); stroke: rgb(128, 0, 128);"></circle><circle r="10" class="node" id="1_1" cx="727" cy="235" style="fill: rgb(1, 1, 1); stroke: rgb(128, 0, 128);"></circle><circle r="10" class="node" id="1_2" cx="727" cy="275" style="fill: rgb(1, 1, 1); stroke: rgb(128, 0, 128);"></circle><circle r="10" class="node" id="1_3" cx="727" cy="315" style="fill: rgb(1, 1, 1); stroke: rgb(128, 0, 128);"></circle><circle r="10" class="node" id="1_4" cx="727" cy="355" style="fill: rgb(1, 1, 1); stroke: rgb(128, 0, 128);"></circle><circle r="10" class="node" id="1_5" cx="727" cy="395" style="fill: rgb(1, 1, 1); stroke: rgb(128, 0, 128);"></circle><circle r="10" class="node" id="1_6" cx="727" cy="435" style="fill: rgb(1, 1, 1); stroke: rgb(128, 0, 128);"></circle><circle r="10" class="node" id="1_7" cx="727" cy="475" style="fill: rgb(1, 1, 1); stroke: rgb(128, 0, 128);"></circle><circle r="10" class="node" id="1_8" cx="727" cy="515" style="fill: rgb(1, 1, 1); stroke: rgb(128, 0, 128);"></circle><circle r="10" class="node" id="2_0" cx="930" cy="355" style="fill: rgb(1, 1, 1); stroke: rgb(128, 0, 128);"></circle><text class="text" dy=".35em" x="489" y="555" style="font-size: 12px;"></text><text class="text" dy=".35em" x="692" y="555" style="font-size: 12px;"></text><text class="text" dy=".35em" x="895" y="555" style="font-size: 12px;"></text><text class="text" dy=".35em" x="1098" y="555" style="font-size: 12px;"></text></g><defs><marker id="arrow" viewBox="0 -5 10 10" markerWidth="7" markerHeight="7" orient="auto" refX="40"><path d="M0,-5L10,0L0,5" style="stroke: rgb(80, 80, 80); fill: none;"></path></marker></defs></svg>